<?xml version="1.0" encoding="utf-8"?>
<!-- Generator: Adobe Illustrator 24.1.2, SVG Export Plug-In . SVG Version: 6.00 Build 0)  -->
<svg version="1.1" id="Layer_1" xmlns="http://www.w3.org/2000/svg" xmlns:xlink="http://www.w3.org/1999/xlink" x="0px" y="0px"
	 viewBox="0 0 1239.1 307.7" style="enable-background:new 0 0 1239.1 307.7;" xml:space="preserve">
<style type="text/css">
	.st0{fill:#2279C0;}
	.st1{fill:#042846;}
	.st2{clip-path:url(#SVGID_2_);}
	.st3{filter:url(#Adobe_OpacityMaskFilter);}
	.st4{mask:url(#_x32_adcf1f9d8_1_);}
</style>
<g transform="matrix(1.25, 0, 0, 1.25, 0.00003335, -0.00002)">
	
		<image style="overflow:visible;enable-background:new    ;" width="1200" height="1200" xlink:href="129A004A.jpg"  transform="matrix(0.8261 0 0 0.2052 -2.640000e-05 1.600000e-05)">
	</image>
</g>
<g>
	<g transform="translate(352.995735, 817.87491)">
		<g>
			<path class="st0" d="M-171.9-755h37.9l-20.9,126.8c-1.9,11.7-6.2,21.8-12.7,30.4c-6.5,8.6-14.8,15.2-24.7,19.8
				c-10,4.6-21.1,7-33.5,7c-11,0-20.6-1.9-28.9-5.8c-8.3-3.9-14.4-9.8-18.4-17.7c-4-7.9-5-17.9-3-30h37.9c-0.9,7.3,0.2,13,3.5,16.9
				c3.3,3.9,8.2,5.9,14.8,5.9c7.2,0,13.2-2.3,17.9-7c4.7-4.6,7.8-11.3,9.3-20L-171.9-755z"/>
		</g>
	</g>
</g>
<g>
	<g transform="translate(455.91273, 817.87491)">
		<g>
			<path class="st0" d="M-179.4-570.8c-21,0-36.4-6.3-46.4-18.9c-9.9-12.6-13.1-29.7-9.5-51.2c2.4-14,7.1-26.3,14.3-36.9
				c7.2-10.6,16.2-18.8,27.1-24.7c10.9-5.9,23-8.9,36.3-8.9c12.1,0,22.5,2.5,31.3,7.6c8.8,5.1,15.2,12.8,19.1,23
				c4,10.2,4.6,23.1,2,38.5l-1.7,10.4h-92.7l-0.2,1c-1.7,10.7-0.3,18.7,4.3,24c4.6,5.3,11.6,7.9,21.3,7.9c6.3,0,12-1.3,17-4
				c5.1-2.7,9-6.6,11.8-11.8l34.5,2.3c-4.8,12.6-13.3,22.7-25.2,30.3C-148-574.6-162.4-570.8-179.4-570.8z M-195.2-655.3h56.6
				c1.3-8.1-0.1-14.8-4.3-20c-4.2-5.3-10.4-7.9-18.5-7.9c-5.4,0-10.5,1.3-15.3,3.9c-4.7,2.6-8.7,6-12.1,10.2
				C-191.9-664.9-194.1-660.3-195.2-655.3z"/>
		</g>
	</g>
</g>
<g>
	<g transform="translate(564.1461, 817.87491)">
		<g>
			<path class="st0" d="M-109.9-709.6l-4.7,28.4h-25.7l-11,65.9c-0.9,5.2-0.3,8.7,1.8,10.6c2.1,1.8,5,2.7,8.8,2.7
				c1.8,0,3.6-0.2,5.4-0.5c1.8-0.3,3.2-0.6,4.2-0.8l1.4,28.1c-2.1,0.7-5,1.4-8.5,2.2c-3.5,0.8-7.8,1.3-12.7,1.4
				c-13.9,0.5-24.4-2.4-31.6-9c-7.2-6.5-9.6-16.4-7.3-29.7l11.7-70.9h-18.6l4.8-28.4h18.5l5.4-32.6h37.8l-5.4,32.6H-109.9z"/>
		</g>
	</g>
</g>
<g>
	<g transform="translate(633.108996, 817.87491)">
		<g>
			<path class="st1" d="M-61.6-702.3c0.3-7.4-1.9-13.1-6.5-17.1c-4.6-4-11.5-6-20.6-6c-9.4,0-16.9,1.9-22.5,5.7
				c-5.6,3.8-8.9,8.7-9.9,14.6c-1.3,6.4,0.7,11.4,5.9,14.8c5.2,3.4,11.6,6,19.1,7.7l15.6,3.9c10.1,2.4,18.9,5.8,26.3,10.3
				c7.4,4.5,12.9,10.3,16.5,17.3c3.5,7.1,4.5,15.6,2.8,25.7c-2.8,16.6-11.2,29.8-25.1,39.6c-14,9.8-32.1,14.8-54.3,14.8
				c-21.9,0-38.6-5-50.2-15.1c-11.5-10.1-15.9-24.9-13.1-44.4h37.1c-0.9,9.1,1.5,15.9,7.3,20.5c5.8,4.6,13.7,6.9,23.7,6.9
				c9.9,0,18-2.1,24.5-6.2c6.5-4.1,10.2-9.5,11.3-16.1c1.1-6.1-0.8-10.8-5.6-14.2c-4.8-3.4-12-6.2-21.5-8.5l-19-5
				c-14.6-3.7-25.6-9.6-33.2-17.5c-7.5-7.9-10.2-18.6-8.1-32c1.9-11,6.5-20.7,13.8-28.9c7.3-8.2,16.5-14.6,27.6-19.2
				c11.1-4.6,23.3-6.9,36.6-6.9c13.5,0,24.8,2.3,34.1,7c9.3,4.6,16,11.1,20.3,19.4c4.3,8.3,5.6,17.9,3.9,28.9H-61.6z"/>
		</g>
	</g>
</g>
<g>
	<g transform="translate(751.908672, 817.87491)">
		<g>
			<path class="st1" d="M-47.3-709.6l-4.7,28.4h-25.7l-11,65.9c-0.9,5.2-0.3,8.7,1.8,10.6c2.1,1.8,5,2.7,8.8,2.7
				c1.8,0,3.6-0.2,5.4-0.5c1.8-0.3,3.2-0.6,4.2-0.8l1.4,28.1c-2.1,0.7-5,1.4-8.5,2.2c-3.5,0.8-7.8,1.3-12.7,1.4
				c-13.9,0.5-24.4-2.4-31.6-9c-7.2-6.5-9.6-16.4-7.3-29.7l11.7-70.9h-18.6l4.8-28.4h18.5l5.4-32.6h37.8l-5.4,32.6H-47.3z"/>
		</g>
	</g>
</g>
<g>
	<g transform="translate(820.867273, 817.87491)">
		<g>
			<path class="st1" d="M-57.7-570.8c-13.9,0-25.4-3-34.4-8.9c-9.1-5.9-15.4-14.2-19.1-24.9c-3.7-10.6-4.4-23-2.1-37.1
				c2.2-13.9,6.9-26.1,14-36.6c7.1-10.5,16.1-18.6,27-24.4c10.9-5.8,23.3-8.7,37-8.7c13.8,0,25.3,3,34.4,8.9
				c9.1,5.9,15.5,14.2,19.2,24.9c3.7,10.6,4.4,23,2.1,37.1c-2.3,13.9-6.9,26-14.1,36.5c-7.1,10.5-16.1,18.6-27,24.4
				C-31.7-573.7-44-570.8-57.7-570.8z M-53.9-600.1c9.5,0,17.4-4,23.7-11.9c6.3-7.9,10.4-17.9,12.5-29.9c1.9-11.8,1.1-21.5-2.3-29.2
				c-3.4-7.7-9.8-11.6-19.1-11.6c-9.6,0-17.5,4-23.8,12c-6.3,8-10.4,18-12.4,29.9c-1.9,11.7-1.1,21.4,2.4,29.1
				C-69.6-603.9-63.2-600.1-53.9-600.1z"/>
		</g>
	</g>
</g>
<g>
	<g transform="translate(931.958198, 817.87491)">
		<g>
			<path class="st1" d="M-21.3-570.8c-13.9,0-25.4-3-34.5-8.9c-9-5.9-15.4-14.2-18.9-24.8c-3.6-10.6-4.2-22.8-1.9-36.5
				c2.3-13.9,7-26.2,14.1-36.7c7.2-10.5,16.3-18.8,27.3-24.7c11-5.9,23.4-8.9,37.1-8.9c17.8,0,31.4,4.8,40.8,14.3
				c9.4,9.5,13.2,22.1,11.3,37.8H18.5c0.1-6.7-1.6-12.2-5.2-16.4c-3.6-4.2-8.8-6.3-15.6-6.3c-8.9,0-16.5,3.5-23,10.5
				c-6.5,7-10.8,17-12.9,29.9c-2.2,13-1.2,23,2.9,30.2c4.1,7.1,10.6,10.7,19.4,10.7c6.6,0,12.4-2,17.4-5.9c5.1-4,8.8-9.5,11.2-16.8
				h35.6c-2.4,10.4-6.7,19.6-13.1,27.5c-6.4,7.9-14.3,14.1-23.9,18.5C1.7-573-9.1-570.8-21.3-570.8z"/>
		</g>
	</g>
</g>
<g>
	<g transform="translate(1038.131483, 817.87491)">
		<g>
			<path class="st1" d="M-47-573.5L-16.9-755h37.8l-16.1,97h2l52.4-51.7h43.3l-60.3,59.1l40.1,77H38.1l-27.9-54.9l-12.2,11.7
				l-7.2,43.3H-47z"/>
		</g>
	</g>
</g>
<g>
	<defs>
		<rect id="SVGID_1_" x="968.6" y="60.8" width="220" height="126.4"/>
	</defs>
	<clipPath id="SVGID_2_">
		<use xlink:href="#SVGID_1_"  style="overflow:visible;"/>
	</clipPath>
	<g class="st2">
		<defs>
			<filter id="Adobe_OpacityMaskFilter" filterUnits="userSpaceOnUse" x="968.6" y="60.8" width="220" height="127">
				<feColorMatrix  type="matrix" values="1 0 0 0 0  0 1 0 0 0  0 0 1 0 0  0 0 0 1 0"/>
			</filter>
		</defs>
		<mask maskUnits="userSpaceOnUse" x="968.6" y="60.8" width="220" height="127" id="_x32_adcf1f9d8_1_">
			<g class="st3">
				<g transform="matrix(1.25, 0, 0, 1.253289, 1024.022057, 680.229937)">
					
						<image style="overflow:visible;enable-background:new    ;" width="132" height="76" xlink:href="129A004E.jpg"  transform="matrix(1.3333 0 0 1.3333 -44.3403 -494.2071)">
					</image>
				</g>
			</g>
		</mask>
		<g class="st4">
			<g transform="matrix(1.25, 0, 0, 1.253289, 1024.022057, 680.229937)">
				<g transform="matrix(1 0 0 1 -3.814697e-06 0)" style="enable-background:new    ;">
					
						<image style="overflow:visible;" width="132" height="76" xlink:href="129A0049.png"  transform="matrix(1.3333 0 0 1.3333 -44.3403 -494.2071)">
					</image>
				</g>
			</g>
		</g>
	</g>
</g>
</svg>
