<svg xmlns="http://www.w3.org/2000/svg" xmlns:xlink="http://www.w3.org/1999/xlink" width="1080" zoomAndPan="magnify" viewBox="0 0 810 809.999993" height="1080" preserveAspectRatio="xMidYMid meet" version="1.0"><defs><clipPath id="b79b553586"><path d="M 103 174 L 711.835938 174 L 711.835938 641.367188 L 103 641.367188 Z M 103 174 " clip-rule="nonzero"/></clipPath></defs><rect x="-81" width="972" fill="#ffffff" y="-80.999999" height="971.999992" fill-opacity="1"/><rect x="-81" width="972" fill="#ffffff" y="-80.999999" height="971.999992" fill-opacity="1"/><g clip-path="url(#b79b553586)"><path fill="#e6e6e6" d="M 661.828125 285.542969 L 629.449219 285.542969 L 610.015625 211.414062 C 603.046875 184.832031 575.753906 168.875 549.171875 175.84375 L 140.882812 282.878906 C 114.300781 289.847656 98.34375 317.140625 105.3125 343.722656 L 170.203125 591.246094 C 174.796875 608.777344 188.230469 621.679688 204.46875 626.441406 C 213.496094 635.496094 225.972656 641.105469 239.738281 641.105469 L 661.824219 641.105469 C 689.304688 641.105469 711.660156 618.75 711.660156 591.269531 L 711.660156 335.378906 C 711.660156 307.898438 689.304688 285.542969 661.828125 285.542969 Z M 557.375 207.144531 C 566.710938 204.695312 576.265625 210.28125 578.710938 219.617188 L 595.996094 285.542969 L 519.957031 285.542969 C 519.761719 284.210938 519.492188 282.871094 519.144531 281.535156 C 514.027344 262.011719 494.050781 250.335938 474.527344 255.453125 C 459.898438 259.285156 449.675781 271.464844 447.621094 285.542969 L 258.3125 285.542969 Z M 136.613281 335.515625 C 134.164062 326.179688 139.75 316.625 149.085938 314.179688 L 205.230469 299.460938 C 195.789062 308.535156 189.902344 321.28125 189.902344 335.378906 L 189.902344 538.804688 Z M 679.300781 591.265625 C 679.300781 600.917969 671.476562 608.746094 661.824219 608.746094 L 239.742188 608.746094 C 231.558594 608.746094 224.691406 603.121094 222.789062 595.527344 C 222.445312 594.164062 222.261719 592.734375 222.261719 591.265625 L 222.261719 335.378906 C 222.261719 325.726562 230.089844 317.902344 239.742188 317.902344 L 661.824219 317.902344 C 671.476562 317.902344 679.300781 325.726562 679.300781 335.378906 Z M 679.300781 591.265625 " fill-opacity="1" fill-rule="nonzero"/></g><path fill="#e6e6e6" d="M 595.269531 354.324219 C 596.117188 355.171875 596.921875 356.058594 597.679688 356.984375 C 598.4375 357.910156 599.152344 358.867188 599.816406 359.863281 C 600.480469 360.859375 601.09375 361.882812 601.660156 362.941406 C 602.222656 363.996094 602.734375 365.074219 603.191406 366.179688 C 603.652344 367.289062 604.054688 368.414062 604.402344 369.558594 C 604.75 370.703125 605.039062 371.863281 605.273438 373.039062 C 605.507812 374.210938 605.683594 375.394531 605.800781 376.585938 C 605.917969 377.777344 605.976562 378.96875 605.976562 380.167969 C 605.976562 381.363281 605.917969 382.558594 605.800781 383.75 C 605.683594 384.941406 605.507812 386.121094 605.273438 387.296875 C 605.039062 388.46875 604.75 389.628906 604.402344 390.773438 C 604.054688 391.921875 603.652344 393.046875 603.195312 394.152344 C 602.734375 395.257812 602.222656 396.339844 601.660156 397.394531 C 601.097656 398.449219 600.480469 399.472656 599.816406 400.46875 C 599.152344 401.464844 598.441406 402.425781 597.679688 403.351562 C 596.921875 404.277344 596.117188 405.160156 595.273438 406.007812 C 594.425781 406.855469 593.539062 407.65625 592.613281 408.417969 C 591.691406 409.175781 590.730469 409.886719 589.734375 410.550781 C 588.738281 411.21875 587.714844 411.832031 586.660156 412.394531 C 585.601562 412.960938 584.523438 413.472656 583.417969 413.929688 C 582.3125 414.386719 581.183594 414.789062 580.039062 415.136719 C 578.894531 415.484375 577.734375 415.777344 576.5625 416.007812 C 575.386719 416.242188 574.203125 416.417969 573.011719 416.535156 C 571.820312 416.652344 570.628906 416.710938 569.429688 416.710938 C 568.234375 416.710938 567.039062 416.652344 565.847656 416.535156 C 564.660156 416.417969 563.476562 416.242188 562.300781 416.007812 C 561.128906 415.777344 559.96875 415.484375 558.824219 415.136719 C 557.675781 414.789062 556.550781 414.386719 555.445312 413.929688 C 554.339844 413.472656 553.261719 412.960938 552.203125 412.398438 C 551.148438 411.832031 550.125 411.21875 549.128906 410.554688 C 548.132812 409.886719 547.171875 409.175781 546.246094 408.417969 C 545.324219 407.65625 544.4375 406.855469 543.589844 406.007812 C 542.742188 405.164062 541.941406 404.277344 541.183594 403.351562 C 540.421875 402.425781 539.710938 401.464844 539.046875 400.472656 C 538.378906 399.476562 537.765625 398.449219 537.203125 397.394531 C 536.636719 396.339844 536.125 395.257812 535.667969 394.152344 C 535.210938 393.046875 534.808594 391.921875 534.460938 390.777344 C 534.113281 389.628906 533.820312 388.472656 533.589844 387.296875 C 533.355469 386.125 533.179688 384.941406 533.0625 383.75 C 532.945312 382.558594 532.886719 381.363281 532.886719 380.167969 C 532.886719 378.972656 532.945312 377.777344 533.0625 376.585938 C 533.179688 375.394531 533.355469 374.210938 533.589844 373.039062 C 533.820312 371.863281 534.113281 370.703125 534.460938 369.558594 C 534.808594 368.414062 535.210938 367.289062 535.667969 366.183594 C 536.125 365.078125 536.636719 363.996094 537.199219 362.941406 C 537.765625 361.886719 538.378906 360.859375 539.042969 359.863281 C 539.710938 358.871094 540.421875 357.910156 541.179688 356.984375 C 541.941406 356.058594 542.742188 355.171875 543.589844 354.328125 C 544.4375 353.480469 545.320312 352.675781 546.246094 351.917969 C 547.171875 351.160156 548.132812 350.445312 549.128906 349.78125 C 550.121094 349.117188 551.148438 348.503906 552.203125 347.9375 C 553.257812 347.375 554.339844 346.863281 555.445312 346.40625 C 556.550781 345.945312 557.675781 345.542969 558.820312 345.195312 C 559.96875 344.847656 561.125 344.558594 562.300781 344.324219 C 563.472656 344.089844 564.65625 343.917969 565.847656 343.796875 C 567.039062 343.679688 568.234375 343.621094 569.429688 343.621094 C 570.628906 343.621094 571.820312 343.679688 573.011719 343.796875 C 574.203125 343.917969 575.386719 344.089844 576.558594 344.324219 C 577.734375 344.558594 578.894531 344.847656 580.039062 345.195312 C 581.183594 345.542969 582.308594 345.945312 583.414062 346.40625 C 584.519531 346.863281 585.601562 347.375 586.65625 347.9375 C 587.710938 348.5 588.738281 349.117188 589.734375 349.78125 C 590.726562 350.445312 591.6875 351.160156 592.613281 351.917969 C 593.539062 352.675781 594.425781 353.480469 595.269531 354.324219 Z M 595.269531 354.324219 " fill-opacity="1" fill-rule="nonzero"/><path fill="#e6e6e6" d="M 621.511719 572.285156 L 571.695312 537.511719 L 536.855469 513.191406 L 448.457031 451.492188 C 445.484375 449.417969 441.414062 449.960938 439.09375 452.75 L 417.621094 478.511719 C 415.300781 481.296875 411.238281 481.84375 408.261719 479.777344 L 318.683594 417.460938 C 315.261719 415.082031 310.53125 416.203125 308.546875 419.871094 L 247.507812 532.660156 C 246.953125 533.683594 246.664062 534.828125 246.664062 535.988281 L 246.664062 578.015625 C 246.664062 581.875 249.792969 585 253.652344 585 L 617.511719 585 C 624.351562 585 627.117188 576.199219 621.511719 572.285156 Z M 621.511719 572.285156 " fill-opacity="1" fill-rule="nonzero"/></svg>