<?xml version="1.0" encoding="utf-8"?>
<!-- Generator: Adobe Illustrator 24.1.2, SVG Export Plug-In . SVG Version: 6.00 Build 0)  -->
<svg version="1.1" id="Layer_1" xmlns="http://www.w3.org/2000/svg" xmlns:xlink="http://www.w3.org/1999/xlink" x="0px" y="0px"
	 viewBox="0 0 400.3 360.9" style="enable-background:new 0 0 400.3 360.9;" xml:space="preserve">
<style type="text/css">
	.st0{fill:#2279C0;}
	.st1{fill:#042846;}
</style>
<g transform="matrix(1.25, 0, 0, 1.25, 0.00003335, -0.00002)">
	
		<image style="overflow:visible;enable-background:new    ;" width="1200" height="1200" xlink:href="405E1196.png"  transform="matrix(0.2669 0 0 0.2383 -2.640000e-05 2.7234)">
	</image>
</g>
<g>
	<g transform="translate(637.261454, 817.87491)">
		<g>
			<path class="st0" d="M-480.3-726.5h37.9l-20.9,126.8c-1.9,11.7-6.2,21.8-12.7,30.4c-6.5,8.6-14.8,15.2-24.7,19.8
				c-10,4.6-21.1,7-33.5,7c-11,0-20.6-1.9-28.9-5.8c-8.3-3.9-14.4-9.8-18.4-17.7c-4-7.9-5-17.9-3-30h37.9c-0.9,7.3,0.2,13,3.5,16.9
				c3.3,3.9,8.2,5.9,14.8,5.9c7.2,0,13.2-2.3,17.9-7c4.7-4.6,7.8-11.3,9.3-20L-480.3-726.5z"/>
		</g>
	</g>
</g>
<g>
	<g transform="translate(740.187226, 817.87491)">
		<g>
			<path class="st1" d="M-429.1-673.8c0.3-7.4-1.9-13.1-6.5-17.1c-4.6-4-11.5-6-20.6-6c-9.4,0-16.9,1.9-22.5,5.7
				c-5.6,3.8-8.9,8.7-9.9,14.6c-1.3,6.4,0.7,11.4,5.9,14.8c5.2,3.4,11.6,6,19.1,7.7l15.6,3.9c10.1,2.4,18.9,5.8,26.3,10.3
				c7.4,4.5,12.9,10.3,16.5,17.3c3.5,7.1,4.5,15.6,2.8,25.7c-2.8,16.6-11.2,29.8-25.1,39.6c-14,9.8-32.1,14.8-54.3,14.8
				c-21.9,0-38.6-5-50.2-15.1c-11.5-10.1-15.9-24.9-13.1-44.4h37.1c-0.9,9.1,1.5,15.9,7.3,20.5c5.8,4.6,13.7,6.9,23.7,6.9
				c9.9,0,18-2.1,24.5-6.2c6.5-4.1,10.2-9.5,11.3-16.1c1.1-6.1-0.8-10.8-5.6-14.2c-4.8-3.4-12-6.2-21.5-8.5l-19-5
				c-14.6-3.7-25.6-9.6-33.2-17.5c-7.5-7.9-10.2-18.6-8.1-32c1.9-11,6.5-20.7,13.8-28.9c7.3-8.2,16.5-14.6,27.6-19.2
				c11.1-4.6,23.3-6.9,36.6-6.9c13.5,0,24.8,2.3,34.1,7c9.3,4.6,16,11.1,20.3,19.4c4.3,8.3,5.6,17.9,3.9,28.9H-429.1z"/>
		</g>
	</g>
</g>
</svg>
